# xmcd
#
# Track frame offsets: 
#        150
#        18495
#        36309
#        57776
#        78662
#        100321
#        118272
#        138963
#        162228
#        180141
#        205671
#
# Disc length: 3027 seconds
#
# Revision: 1
# Processed by: cddbd v1.5.2PL0 Copyright (c) Steve Scherf et al.
# Submitted via: ExactAudioCopyFreeDBPlugin 1.0
#
DISCID=8c0bd10b
DTITLE=サザーランド - SCREEN
DYEAR=2005
DGENRE=JPop
TTITLE0=Silent movie
TTITLE1=君となら
TTITLE2=Dream of reunion
TTITLE3=悲しみのうた
TTITLE4=涙雨
TTITLE5=GATE
TTITLE6=スカイ線の向こう
TTITLE7=その瞳のかげり
TTITLE8=MONSTER
TTITLE9=その先に霞んでいる
TTITLE10=Believe
EXTD=
EXTT0=
EXTT1=
EXTT2=
EXTT3=
EXTT4=
EXTT5=
EXTT6=
EXTT7=
EXTT8=
EXTT9=
EXTT10=
PLAYORDER=
